<?xml version="1.0" encoding="UTF-8" standalone="no"?>
<!-- Created with Inkscape (http://www.inkscape.org/) -->

<svg
   width="233.21301mm"
   height="358.67343mm"
   viewBox="0 0 233.21301 358.67343"
   version="1.1"
   id="svg1"
   xmlns="http://www.w3.org/2000/svg"
   xmlns:svg="http://www.w3.org/2000/svg">
  <defs
     id="defs1" />
  <g
     id="layer1"
     transform="translate(33.866676,105.03959)">
    <g
       id="g327"
       style="fill:none;stroke:#ded6ca;stroke-opacity:1"
       transform="matrix(0.26458333,0,0,0.26458333,-217.0481,-181.06392)">
		<g
   id="g255"
   style="fill:none;stroke:#ded6ca;stroke-opacity:1">
			<g
   id="g137"
   style="fill:none;stroke:#ded6ca;stroke-opacity:1">
				<g
   id="g136"
   style="fill:none;stroke:#ded6ca;stroke-opacity:1">
					<path
   style="fill:none;stroke:#ded6ca;stroke-opacity:1"
   d="m 1366.064,1322.629 c -11.78,-51.506 -36.655,-99.447 -74.423,-136.67 -33.283,-32.803 -75.668,-56.233 -121.728,-64.909 -47.117,-8.876 -94.893,-1.006 -138.381,18.594 -47.99,21.629 -89.995,57.256 -118.308,101.7 -28.722,45.086 -42.17,98.829 -35.569,152.077 6.701,54.055 32.869,106.761 67.415,148.403 33.223,40.045 77.964,72.163 129.082,84.292 25.317,6.007 51.574,6.861 77.233,2.58 26.026,-4.343 50.667,-14.432 74.101,-26.311 43.301,-21.95 82.911,-52.751 110.781,-92.85 29.641,-42.647 42.465,-94.403 38.238,-146.021 -0.552,-6.739 -1.375,-13.458 -2.411,-20.139 -1.148,-7.402 -4.245,-13.797 -7.449,-20.53 -0.292,-0.614 -1.237,-0.289 -1.237,0.335 0,7.323 -0.457,14.354 0.634,21.608 1.046,6.953 1.79,13.952 2.252,20.968 0.881,13.376 0.693,26.826 -0.708,40.161 -2.531,24.087 -9.328,47.794 -20.013,69.529 -20.76,42.23 -54.823,76.226 -94.201,101.407 -41.754,26.7 -89.893,47.19 -140.275,44.999 -50.152,-2.181 -96.932,-25.675 -133.409,-59.355 -38.647,-35.684 -66.98,-82.403 -82.499,-132.555 -15.581,-50.352 -12.309,-104.649 8.468,-153.087 20.042,-46.727 55.228,-86.961 98.157,-114.064 40.363,-25.483 88.404,-41.278 136.441,-39.442 44.572,1.704 88.025,17.895 124.024,43.999 40.465,29.342 70.613,71.34 88.198,117.933 4.733,12.541 8.554,25.397 11.603,38.447 0.607,2.588 4.577,1.492 3.984,-1.099 z"
   id="path135" />

				</g>

			</g>

			<g
   id="g188"
   style="fill:none;stroke:#ded6ca;stroke-opacity:1">
				<g
   id="g139"
   style="fill:none;stroke:#ded6ca;stroke-opacity:1">
					<g
   id="g138"
   style="fill:none;stroke:#ded6ca;stroke-opacity:1">
						<path
   style="fill:none;stroke:#ded6ca;stroke-opacity:1"
   d="m 1365.776,1346.191 c -4.684,9.989 -7.323,21.397 -10.945,31.836 -3.846,11.088 -8.209,21.979 -12.952,32.713 -9.575,21.671 -21.941,41.626 -33.293,62.348 -0.423,0.772 0.669,1.725 1.274,0.983 15.038,-18.444 26.606,-40.139 36.379,-61.739 4.654,-10.287 8.716,-20.845 12.373,-31.525 3.684,-10.761 8.043,-22.745 8.951,-34.131 0.074,-0.93 -1.387,-1.336 -1.787,-0.485 z"
   id="path137" />

					</g>

				</g>

				<g
   id="g141"
   style="fill:none;stroke:#ded6ca;stroke-opacity:1">
					<g
   id="g140"
   style="fill:none;stroke:#ded6ca;stroke-opacity:1">
						<path
   style="fill:none;stroke:#ded6ca;stroke-opacity:1"
   d="m 1354.389,1353.263 c -2.563,4.117 -4.049,8.978 -6.042,13.406 -2.152,4.782 -4.38,9.535 -6.667,14.254 -4.474,9.231 -9.271,18.303 -14.272,27.258 -10.106,18.1 -21.255,35.644 -30.978,53.951 -0.475,0.895 0.763,1.582 1.338,0.782 12.255,-17.08 23.249,-35.22 33.492,-53.567 4.998,-8.953 9.792,-18.023 14.256,-27.255 2.152,-4.451 4.197,-8.944 6.135,-13.493 1.942,-4.56 4.439,-9.354 5.367,-14.229 0.298,-1.564 -1.733,-2.546 -2.629,-1.107 z"
   id="path139" />

					</g>

				</g>

				<g
   id="g143"
   style="fill:none;stroke:#ded6ca;stroke-opacity:1">
					<g
   id="g142"
   style="fill:none;stroke:#ded6ca;stroke-opacity:1">
						<path
   style="fill:none;stroke:#ded6ca;stroke-opacity:1"
   d="m 1331.572,1370.175 c -2.571,2.253 -3.926,5.659 -5.539,8.638 -1.876,3.466 -3.704,6.958 -5.515,10.459 -3.561,6.885 -7.054,13.805 -10.586,20.705 -7.18,14.029 -14.81,27.889 -23.579,40.996 -0.712,1.064 0.967,2.396 1.796,1.385 9.95,-12.132 17.639,-25.7 24.858,-39.581 3.711,-7.136 7.243,-14.363 10.867,-21.543 1.777,-3.52 3.571,-7.032 5.413,-10.519 1.587,-3.003 3.762,-5.957 4.381,-9.32 0.228,-1.238 -1.122,-2.073 -2.096,-1.22 z"
   id="path141" />

					</g>

				</g>

				<g
   id="g145"
   style="fill:none;stroke:#ded6ca;stroke-opacity:1">
					<g
   id="g144"
   style="fill:none;stroke:#ded6ca;stroke-opacity:1">
						<path
   style="fill:none;stroke:#ded6ca;stroke-opacity:1"
   d="m 1311.801,1385.03 c -5.504,8.191 -9.067,18.137 -13.522,26.947 -4.618,9.133 -9.58,18.064 -14.566,26.998 -10.026,17.964 -21.007,35.308 -32.406,52.424 -0.481,0.721 0.657,1.625 1.216,0.938 13.048,-16.02 24.63,-33.277 35.091,-51.082 5.177,-8.812 9.89,-17.924 14.434,-27.076 4.395,-8.851 9.923,-18.453 12.18,-28.127 0.347,-1.49 -1.588,-2.271 -2.427,-1.022 z"
   id="path143" />

					</g>

				</g>

				<g
   id="g147"
   style="fill:none;stroke:#ded6ca;stroke-opacity:1">
					<g
   id="g146"
   style="fill:none;stroke:#ded6ca;stroke-opacity:1">
						<path
   style="fill:none;stroke:#ded6ca;stroke-opacity:1"
   d="m 1292.771,1398.722 c -6.777,8.931 -11.706,19.892 -17.291,29.622 -5.781,10.072 -11.778,20.014 -17.729,29.985 -11.903,19.943 -24.799,39.38 -35.641,59.934 -0.429,0.813 0.685,1.425 1.21,0.707 13.916,-19.023 26.089,-39.364 38.333,-59.485 6.033,-9.915 11.816,-19.989 17.484,-30.117 5.315,-9.497 11.785,-19.628 15.049,-30.049 0.283,-0.905 -0.922,-1.247 -1.415,-0.597 z"
   id="path145" />

					</g>

				</g>

				<g
   id="g149"
   style="fill:none;stroke:#ded6ca;stroke-opacity:1">
					<g
   id="g148"
   style="fill:none;stroke:#ded6ca;stroke-opacity:1">
						<path
   style="fill:none;stroke:#ded6ca;stroke-opacity:1"
   d="m 1270.883,1410.952 c -4.142,5.402 -6.571,12.641 -9.682,18.699 -3.262,6.353 -6.718,12.602 -10.2,18.836 -6.943,12.43 -14.466,24.527 -21.833,36.706 -0.683,1.129 0.966,1.993 1.719,1.005 8.851,-11.603 16.609,-23.95 23.74,-36.673 3.493,-6.232 6.708,-12.621 9.789,-19.066 2.805,-5.868 6.702,-12.506 7.747,-18.967 0.131,-0.805 -0.791,-1.178 -1.28,-0.54 z"
   id="path147" />

					</g>

				</g>

				<g
   id="g151"
   style="fill:none;stroke:#ded6ca;stroke-opacity:1">
					<g
   id="g150"
   style="fill:none;stroke:#ded6ca;stroke-opacity:1">
						<path
   style="fill:none;stroke:#ded6ca;stroke-opacity:1"
   d="m 1250.055,1425.529 c -7.515,9.927 -13.055,21.746 -19.618,32.348 -6.797,10.978 -13.962,21.717 -20.83,32.648 -6.737,10.723 -13.454,21.463 -19.833,32.404 -6.269,10.754 -12.858,21.769 -17.347,33.413 -0.123,0.32 0.371,0.505 0.539,0.227 6.633,-10.963 12.585,-22.301 19.439,-33.147 6.938,-10.979 14.244,-21.711 21.489,-32.487 7.025,-10.45 13.897,-21.054 20.449,-31.809 6.268,-10.288 13.801,-21.328 17.195,-32.972 0.276,-0.947 -0.961,-1.314 -1.483,-0.625 z"
   id="path149" />

					</g>

				</g>

				<g
   id="g153"
   style="fill:none;stroke:#ded6ca;stroke-opacity:1">
					<g
   id="g152"
   style="fill:none;stroke:#ded6ca;stroke-opacity:1">
						<path
   style="fill:none;stroke:#ded6ca;stroke-opacity:1"
   d="m 1226.114,1440.867 c -5.335,2.229 -8.637,9.329 -11.607,14.023 -6.099,9.643 -11.509,19.761 -17.349,29.566 -13.198,22.161 -26.915,43.855 -40.999,65.456 -0.495,0.76 0.681,1.699 1.274,0.983 15.832,-19.108 29.594,-40.364 42.36,-61.605 6.018,-10.013 11.881,-20.109 17.631,-30.274 3.21,-5.676 8.007,-10.774 9.87,-16.97 0.191,-0.638 -0.49,-1.467 -1.18,-1.179 z"
   id="path151" />

					</g>

				</g>

				<g
   id="g155"
   style="fill:none;stroke:#ded6ca;stroke-opacity:1">
					<g
   id="g154"
   style="fill:none;stroke:#ded6ca;stroke-opacity:1">
						<path
   style="fill:none;stroke:#ded6ca;stroke-opacity:1"
   d="m 1212.1,1446.421 c -7.629,5.083 -13.541,14.503 -18.981,21.779 -6.711,8.978 -13.002,18.265 -19.057,27.695 -11.865,18.479 -23.294,37.712 -32.723,57.564 -0.573,1.206 1.013,2.13 1.783,1.042 12.403,-17.513 22.879,-36.462 34.371,-54.577 5.71,-9 11.625,-17.877 17.906,-26.49 3.163,-4.338 6.426,-8.605 9.758,-12.814 3.073,-3.881 6.914,-7.509 9.263,-11.879 0.759,-1.41 -0.837,-3.309 -2.32,-2.32 z"
   id="path153" />

					</g>

				</g>

				<g
   id="g157"
   style="fill:none;stroke:#ded6ca;stroke-opacity:1">
					<g
   id="g156"
   style="fill:none;stroke:#ded6ca;stroke-opacity:1">
						<path
   style="fill:none;stroke:#ded6ca;stroke-opacity:1"
   d="m 1185.113,1461.506 c -8.107,8.016 -14.149,18.245 -20.215,27.821 -6.192,9.776 -11.984,19.797 -18.197,29.559 -1.313,2.063 1.889,3.87 3.248,1.899 6.414,-9.301 12.308,-18.9 18.252,-28.502 6.108,-9.867 13.124,-19.147 19.171,-29.034 0.858,-1.403 -1.102,-2.886 -2.259,-1.743 z"
   id="path155" />

					</g>

				</g>

				<g
   id="g159"
   style="fill:none;stroke:#ded6ca;stroke-opacity:1">
					<g
   id="g158"
   style="fill:none;stroke:#ded6ca;stroke-opacity:1">
						<path
   style="fill:none;stroke:#ded6ca;stroke-opacity:1"
   d="m 1160.351,1476.865 c -6.725,2.895 -11.668,10.381 -15.944,16.028 -5.292,6.989 -9.97,14.371 -14.496,21.872 -9.06,15.016 -17.811,30.231 -27.75,44.695 -0.784,1.141 0.977,2.482 1.911,1.475 11.55,-12.449 19.713,-27.395 28.337,-41.904 4.344,-7.308 8.775,-14.59 13.56,-21.62 4.553,-6.688 11.375,-12.797 14.836,-20.093 0.15,-0.314 -0.148,-0.585 -0.454,-0.453 z"
   id="path157" />

					</g>

				</g>

				<g
   id="g161"
   style="fill:none;stroke:#ded6ca;stroke-opacity:1">
					<g
   id="g160"
   style="fill:none;stroke:#ded6ca;stroke-opacity:1">
						<path
   style="fill:none;stroke:#ded6ca;stroke-opacity:1"
   d="m 1134.417,1487.635 c -6.828,5.445 -11.011,14.242 -15.384,21.635 -4.849,8.2 -9.631,16.392 -15.197,24.137 -1.598,2.224 2.023,4.227 3.63,2.122 5.776,-7.568 10.997,-15.568 15.892,-23.731 4.426,-7.382 9.936,-15.112 12.229,-23.482 0.201,-0.729 -0.654,-1.093 -1.17,-0.681 z"
   id="path159" />

					</g>

				</g>

				<g
   id="g163"
   style="fill:none;stroke:#ded6ca;stroke-opacity:1">
					<g
   id="g162"
   style="fill:none;stroke:#ded6ca;stroke-opacity:1">
						<path
   style="fill:none;stroke:#ded6ca;stroke-opacity:1"
   d="m 1105.156,1503.488 c -9.039,9.799 -14.607,23.013 -20.985,34.597 -6.977,12.671 -14.142,25.238 -22.19,37.266 -0.716,1.071 0.936,2.362 1.796,1.385 9.491,-10.784 16.961,-23.084 23.822,-35.659 6.519,-11.947 14.096,-24.084 18.729,-36.908 0.239,-0.662 -0.712,-1.18 -1.172,-0.681 z"
   id="path161" />

					</g>

				</g>

				<g
   id="g165"
   style="fill:none;stroke:#ded6ca;stroke-opacity:1">
					<g
   id="g164"
   style="fill:none;stroke:#ded6ca;stroke-opacity:1">
						<path
   style="fill:none;stroke:#ded6ca;stroke-opacity:1"
   d="m 1079.258,1516.614 c -7.826,6.649 -12.488,16.987 -17.413,25.815 -5.221,9.359 -10.309,18.8 -15.691,28.067 -0.726,1.25 1.105,2.268 1.911,1.117 6.16,-8.802 11.639,-18.001 17.244,-27.159 5.325,-8.701 12.14,-17.202 15.798,-26.763 0.432,-1.13 -1.097,-1.717 -1.849,-1.077 z"
   id="path163" />

					</g>

				</g>

				<g
   id="g167"
   style="fill:none;stroke:#ded6ca;stroke-opacity:1">
					<g
   id="g166"
   style="fill:none;stroke:#ded6ca;stroke-opacity:1">
						<path
   style="fill:none;stroke:#ded6ca;stroke-opacity:1"
   d="m 1058.846,1523.403 c -6.997,6.455 -11.074,15.481 -15.437,23.793 -4.644,8.851 -8.907,17.908 -12.885,27.077 -0.343,0.791 0.683,1.86 1.332,1.028 5.858,-7.513 10.217,-16.255 14.536,-24.7 4.492,-8.782 9.279,-17.403 13.786,-26.171 0.439,-0.853 -0.611,-1.692 -1.332,-1.027 z"
   id="path165" />

					</g>

				</g>

				<g
   id="g169"
   style="fill:none;stroke:#ded6ca;stroke-opacity:1">
					<g
   id="g168"
   style="fill:none;stroke:#ded6ca;stroke-opacity:1">
						<path
   style="fill:none;stroke:#ded6ca;stroke-opacity:1"
   d="m 1037.265,1532.498 c -5.099,4.947 -8.269,11.537 -11.395,17.813 -3.361,6.748 -6.769,13.499 -9.942,20.333 -0.368,0.793 0.589,1.683 1.274,0.983 10.115,-10.341 12.031,-26.727 21.575,-37.617 0.902,-1.028 -0.513,-2.481 -1.512,-1.512 z"
   id="path167" />

					</g>

				</g>

				<g
   id="g171"
   style="fill:none;stroke:#ded6ca;stroke-opacity:1">
					<g
   id="g170"
   style="fill:none;stroke:#ded6ca;stroke-opacity:1">
						<path
   style="fill:none;stroke:#ded6ca;stroke-opacity:1"
   d="m 1015.929,1541.78 c -5.895,8.666 -9.388,18.619 -14.537,27.695 -0.381,0.672 0.557,1.461 1.1,0.849 6.888,-7.762 10.267,-18.564 14.838,-27.725 0.468,-0.938 -0.813,-1.684 -1.401,-0.819 z"
   id="path169" />

					</g>

				</g>

				<g
   id="g173"
   style="fill:none;stroke:#ded6ca;stroke-opacity:1">
					<g
   id="g172"
   style="fill:none;stroke:#ded6ca;stroke-opacity:1">
						<path
   style="fill:none;stroke:#ded6ca;stroke-opacity:1"
   d="m 1366.531,1374.726 c -1.057,23.884 -12.011,46.24 -24.428,66.199 -6.22,9.999 -13.099,19.556 -20.15,28.98 -6.676,8.922 -14.194,17.71 -19.551,27.514 -0.496,0.909 0.691,1.869 1.448,1.117 8.026,-7.972 14.824,-17.543 21.528,-26.629 7.466,-10.12 14.652,-20.481 21.078,-31.298 11.91,-20.051 20.827,-42.223 20.223,-65.882 0,-0.096 -0.144,-0.096 -0.148,-10e-4 z"
   id="path171" />

					</g>

				</g>

				<g
   id="g175"
   style="fill:none;stroke:#ded6ca;stroke-opacity:1">
					<g
   id="g174"
   style="fill:none;stroke:#ded6ca;stroke-opacity:1">
						<path
   style="fill:none;stroke:#ded6ca;stroke-opacity:1"
   d="m 1361.252,1424.44 c -7.21,14.804 -14.415,29.505 -23.396,43.34 -9.268,14.277 -20.986,26.045 -31.859,38.996 -0.84,1.001 0.225,2.685 1.475,1.911 14.178,-8.771 25.19,-23.031 34.219,-36.792 9.386,-14.305 16.816,-30.306 20.572,-47.03 0.131,-0.58 -0.723,-1.015 -1.011,-0.425 z"
   id="path173" />

					</g>

				</g>

				<g
   id="g177"
   style="fill:none;stroke:#ded6ca;stroke-opacity:1">
					<g
   id="g176"
   style="fill:none;stroke:#ded6ca;stroke-opacity:1">
						<path
   style="fill:none;stroke:#ded6ca;stroke-opacity:1"
   d="m 1339.095,1493.546 c -16.377,16.088 -36.205,27.401 -55.912,38.848 -1.141,0.663 -0.14,2.206 1.005,1.719 20.191,-8.582 45.833,-18.699 56.412,-39.405 0.486,-0.949 -0.703,-1.95 -1.505,-1.162 z"
   id="path175" />

					</g>

				</g>

				<g
   id="g179"
   style="fill:none;stroke:#ded6ca;stroke-opacity:1">
					<g
   id="g178"
   style="fill:none;stroke:#ded6ca;stroke-opacity:1">
						<path
   style="fill:none;stroke:#ded6ca;stroke-opacity:1"
   d="m 1234.736,1563.119 c 6.396,1.548 13.637,-1.06 19.628,-3.224 6.631,-2.395 13.096,-5.405 19.365,-8.616 13.406,-6.867 27.572,-14.399 39.535,-23.584 0.505,-0.388 0.25,-1.419 -0.483,-1.146 -13.277,4.947 -24.955,14.164 -37.414,20.838 -6.785,3.634 -13.711,6.882 -21.053,9.233 -6.416,2.054 -13.631,2.536 -19.726,5.353 -0.497,0.229 -0.349,1.026 0.148,1.146 z"
   id="path177" />

					</g>

				</g>

				<g
   id="g181"
   style="fill:none;stroke:#ded6ca;stroke-opacity:1">
					<g
   id="g180"
   style="fill:none;stroke:#ded6ca;stroke-opacity:1">
						<path
   style="fill:none;stroke:#ded6ca;stroke-opacity:1"
   d="m 1210.516,1583.541 c 15.189,-0.978 31.262,-7.508 44.807,-14.148 7.41,-3.632 14.681,-7.543 21.841,-11.643 3.521,-2.016 7.032,-4.051 10.552,-6.07 3.421,-1.962 7.509,-3.712 10.14,-6.702 0.743,-0.845 0.01,-1.95 -1.041,-1.787 -6.898,1.072 -14.105,6.863 -20.141,10.248 -6.93,3.887 -13.83,7.839 -20.87,11.525 -7.392,3.87 -14.796,7.901 -22.554,10.99 -7.462,2.97 -15.098,4.87 -22.813,7.008 -0.311,0.086 -0.261,0.601 0.079,0.579 z"
   id="path179" />

					</g>

				</g>

				<g
   id="g183"
   style="fill:none;stroke:#ded6ca;stroke-opacity:1">
					<g
   id="g182"
   style="fill:none;stroke:#ded6ca;stroke-opacity:1">
						<path
   style="fill:none;stroke:#ded6ca;stroke-opacity:1"
   d="m 1176.234,1597.152 c 11.46,3.488 25.58,0.632 37.08,-1.696 6.507,-1.317 12.939,-2.985 19.295,-4.902 5.427,-1.637 11.793,-3.061 16.176,-6.839 0.451,-0.389 0.074,-1.127 -0.469,-1.133 -5.695,-0.069 -11.35,2.65 -16.726,4.274 -6.053,1.828 -12.177,3.429 -18.369,4.715 -6.285,1.305 -12.656,2.299 -19.043,2.936 -6,0.599 -12.031,0.389 -17.944,1.649 -0.519,0.111 -0.463,0.855 0,0.996 z"
   id="path181" />

					</g>

				</g>

				<g
   id="g185"
   style="fill:none;stroke:#ded6ca;stroke-opacity:1">
					<g
   id="g184"
   style="fill:none;stroke:#ded6ca;stroke-opacity:1">
						<path
   style="fill:none;stroke:#ded6ca;stroke-opacity:1"
   d="m 1153.032,1607.92 c 5.751,4.325 15.551,4.527 22.471,4.626 6.629,0.095 16.947,0.327 22.227,-4.287 0.616,-0.538 0.086,-1.471 -0.626,-1.511 -3.123,-0.174 -6.247,0.943 -9.32,1.468 -4.318,0.737 -8.709,0.983 -13.085,0.917 -7.042,-0.106 -14.539,-2.429 -21.499,-1.831 -0.343,0.029 -0.433,0.418 -0.168,0.618 z"
   id="path183" />

					</g>

				</g>

				<g
   id="g187"
   style="fill:none;stroke:#ded6ca;stroke-opacity:1">
					<g
   id="g186"
   style="fill:none;stroke:#ded6ca;stroke-opacity:1">
						<path
   style="fill:none;stroke:#ded6ca;stroke-opacity:1"
   d="m 1132.29,1615.13 c 6.2,6.124 15.69,5.826 23.658,4.584 1.262,-0.197 0.979,-2.366 -0.304,-2.246 -7.965,0.745 -15.436,-0.855 -23.103,-2.77 -0.246,-0.061 -0.438,0.247 -0.251,0.432 z"
   id="path185" />

					</g>

				</g>

			</g>

			<g
   id="g239"
   style="fill:none;stroke:#ded6ca;stroke-opacity:1">
				<g
   id="g190"
   style="fill:none;stroke:#ded6ca;stroke-opacity:1">
					<g
   id="g189"
   style="fill:none;stroke:#ded6ca;stroke-opacity:1">
						<path
   style="fill:none;stroke:#ded6ca;stroke-opacity:1"
   d="m 963.117,1188.735 c -36.159,35.414 -51.331,89.11 -53.525,138.377 -0.053,1.191 1.769,1.177 1.844,0 1.579,-24.918 6.17,-49.782 14.859,-73.236 8.821,-23.809 22.225,-44.527 36.996,-65.007 0.075,-0.104 -0.087,-0.219 -0.174,-0.134 z"
   id="path188" />

					</g>

				</g>

				<g
   id="g192"
   style="fill:none;stroke:#ded6ca;stroke-opacity:1">
					<g
   id="g191"
   style="fill:none;stroke:#ded6ca;stroke-opacity:1">
						<path
   style="fill:none;stroke:#ded6ca;stroke-opacity:1"
   d="m 982.858,1175.485 c -16.737,10.197 -23.187,33.217 -27.442,51.08 -4.873,20.458 -6.92,41.448 -8.876,62.346 -0.088,0.942 1.519,1.172 1.666,0.226 3.061,-19.735 5.405,-39.564 9.923,-59.047 4.517,-19.476 11.182,-39.319 24.953,-54.315 0.137,-0.15 -0.039,-0.403 -0.224,-0.29 z"
   id="path190" />

					</g>

				</g>

				<g
   id="g194"
   style="fill:none;stroke:#ded6ca;stroke-opacity:1">
					<g
   id="g193"
   style="fill:none;stroke:#ded6ca;stroke-opacity:1">
						<path
   style="fill:none;stroke:#ded6ca;stroke-opacity:1"
   d="m 1013.009,1151.081 c -5.913,2.337 -9.355,8.021 -12.266,13.394 -4.042,7.461 -6.937,15.546 -9.438,23.633 -4.836,15.636 -7.558,31.796 -10.839,47.798 -0.312,1.523 1.906,2.165 2.347,0.647 4.195,-14.433 7.119,-29.196 11.277,-43.647 2.296,-7.982 4.876,-15.953 8.489,-23.448 2.996,-6.214 7.042,-11.513 11.29,-16.897 0.474,-0.601 0.065,-1.846 -0.86,-1.48 z"
   id="path192" />

					</g>

				</g>

				<g
   id="g196"
   style="fill:none;stroke:#ded6ca;stroke-opacity:1">
					<g
   id="g195"
   style="fill:none;stroke:#ded6ca;stroke-opacity:1">
						<path
   style="fill:none;stroke:#ded6ca;stroke-opacity:1"
   d="m 1049.834,1135.101 c -4.246,0.952 -7.409,5.401 -9.893,8.692 -3.359,4.45 -6.136,9.31 -8.538,14.335 -5.339,11.171 -8.792,23.246 -11.634,35.262 -5.477,23.154 -7.486,46.854 -11.146,70.313 -0.136,0.869 1.136,1.269 1.351,0.373 5.261,-21.913 8.122,-44.354 13.327,-66.294 2.84,-11.968 6.203,-23.854 11.178,-35.13 2.138,-4.846 4.54,-9.58 7.473,-13.999 2.642,-3.981 7.235,-7.6 9.088,-11.982 0.361,-0.847 -0.226,-1.79 -1.206,-1.57 z"
   id="path194" />

					</g>

				</g>

				<g
   id="g198"
   style="fill:none;stroke:#ded6ca;stroke-opacity:1">
					<g
   id="g197"
   style="fill:none;stroke:#ded6ca;stroke-opacity:1">
						<path
   style="fill:none;stroke:#ded6ca;stroke-opacity:1"
   d="m 1076.462,1127.154 c -6.214,0.614 -10.537,10.615 -12.785,15.422 -4.382,9.373 -7.286,19.389 -9.856,29.386 -4.871,18.948 -7.555,38.251 -11.062,57.465 -0.185,1.016 1.249,1.442 1.565,0.431 5.429,-17.358 8.235,-35.586 12.583,-53.234 2.4,-9.738 5.126,-19.452 8.829,-28.785 1.551,-3.908 3.326,-7.776 5.589,-11.328 1.738,-2.727 4.594,-4.932 6.06,-7.748 0.34,-0.652 -0.064,-1.694 -0.923,-1.609 z"
   id="path196" />

					</g>

				</g>

				<g
   id="g200"
   style="fill:none;stroke:#ded6ca;stroke-opacity:1">
					<g
   id="g199"
   style="fill:none;stroke:#ded6ca;stroke-opacity:1">
						<path
   style="fill:none;stroke:#ded6ca;stroke-opacity:1"
   d="m 1103.914,1122.065 c -11.391,15.913 -13.892,37.053 -16.692,55.909 -0.211,1.421 1.76,2.052 2.205,0.608 5.601,-18.185 6.469,-38.64 17.544,-54.73 1.302,-1.892 -1.746,-3.618 -3.057,-1.787 z"
   id="path198" />

					</g>

				</g>

				<g
   id="g202"
   style="fill:none;stroke:#ded6ca;stroke-opacity:1">
					<g
   id="g201"
   style="fill:none;stroke:#ded6ca;stroke-opacity:1">
						<path
   style="fill:none;stroke:#ded6ca;stroke-opacity:1"
   d="m 1126.516,1122.004 c 4.015,13.87 6.876,27.824 8.452,42.185 1.523,13.872 1.54,27.819 2.035,41.747 0.064,1.802 2.516,1.701 2.729,0 3.458,-27.685 -0.218,-58.718 -10.585,-84.658 -0.633,-1.587 -3.132,-1.005 -2.631,0.726 z"
   id="path200" />

					</g>

				</g>

				<g
   id="g204"
   style="fill:none;stroke:#ded6ca;stroke-opacity:1">
					<g
   id="g203"
   style="fill:none;stroke:#ded6ca;stroke-opacity:1">
						<path
   style="fill:none;stroke:#ded6ca;stroke-opacity:1"
   d="m 1148.554,1121.846 c 16.846,34.211 29.545,70.397 26.946,109.113 -0.08,1.194 1.859,1.468 2.101,0.284 3.886,-19.061 1.651,-38.588 -3.647,-57.18 -5.324,-18.684 -13.253,-36.874 -24.699,-52.626 -0.305,-0.42 -0.935,-0.066 -0.701,0.409 z"
   id="path202" />

					</g>

				</g>

				<g
   id="g206"
   style="fill:none;stroke:#ded6ca;stroke-opacity:1">
					<g
   id="g205"
   style="fill:none;stroke:#ded6ca;stroke-opacity:1">
						<path
   style="fill:none;stroke:#ded6ca;stroke-opacity:1"
   d="m 1172.941,1124.554 c 4.327,11.412 10.049,22.256 14.39,33.694 4.505,11.869 8.257,24.014 11.3,36.338 6.037,24.453 9.339,49.476 11.152,74.574 0.096,1.325 1.977,1.332 2.065,0 1.669,-25.235 -1.894,-50.658 -8.152,-75.089 -3.22,-12.572 -7.167,-24.971 -11.933,-37.045 -4.478,-11.346 -9.469,-23.542 -16.936,-33.268 -0.637,-0.831 -2.343,-0.409 -1.886,0.796 z"
   id="path204" />

					</g>

				</g>

				<g
   id="g208"
   style="fill:none;stroke:#ded6ca;stroke-opacity:1">
					<g
   id="g207"
   style="fill:none;stroke:#ded6ca;stroke-opacity:1">
						<path
   style="fill:none;stroke:#ded6ca;stroke-opacity:1"
   d="m 1206.094,1137.437 c 7.258,5.607 13.152,11.402 17.714,19.481 5.022,8.894 8.225,18.725 10.648,28.609 5.177,21.121 6.744,42.734 8.299,64.353 0.683,9.506 0.814,19.415 2.517,28.803 0.249,1.37 2.117,0.873 2.246,-0.304 2.186,-19.986 0.413,-41.17 -1.92,-61.048 -2.499,-21.285 -6.44,-43.634 -17.3,-62.438 -4.729,-8.189 -11.723,-17.126 -21.039,-20.22 -1.771,-0.587 -2.408,1.804 -1.165,2.764 z"
   id="path206" />

					</g>

				</g>

				<g
   id="g210"
   style="fill:none;stroke:#ded6ca;stroke-opacity:1">
					<g
   id="g209"
   style="fill:none;stroke:#ded6ca;stroke-opacity:1">
						<path
   style="fill:none;stroke:#ded6ca;stroke-opacity:1"
   d="m 1244.631,1156.006 c 1.454,4.235 5.539,8.024 8.135,11.602 3.436,4.735 6.533,9.712 9.404,14.807 6.647,11.798 12.374,24.182 17.178,36.837 4.642,12.228 8.62,24.77 11.481,37.538 1.291,5.761 2.412,11.591 3.236,17.438 0.701,4.977 0.594,10.345 1.718,15.221 0.462,2.005 3.369,1.855 3.912,0 1.403,-4.797 0.769,-10.687 0.298,-15.616 -0.582,-6.091 -1.586,-12.109 -2.918,-18.079 -3.006,-13.477 -7.25,-26.66 -12.436,-39.451 -5.103,-12.587 -10.947,-24.884 -18.211,-36.377 -3.227,-5.106 -6.697,-10.063 -10.487,-14.768 -2.785,-3.458 -6.37,-8.358 -10.765,-9.698 -0.311,-0.093 -0.654,0.227 -0.545,0.546 z"
   id="path208" />

					</g>

				</g>

				<g
   id="g212"
   style="fill:none;stroke:#ded6ca;stroke-opacity:1">
					<g
   id="g211"
   style="fill:none;stroke:#ded6ca;stroke-opacity:1">
						<path
   style="fill:none;stroke:#ded6ca;stroke-opacity:1"
   d="m 1286.471,1186.609 c 2.003,4.218 5.643,7.93 8.086,11.971 2.656,4.393 5.016,8.965 7.118,13.648 4.582,10.209 7.836,21.167 10.328,32.062 4.869,21.292 6.526,43.945 4.223,65.704 -0.183,1.731 2.691,2.113 3.042,0.412 4.665,-22.589 2.94,-45.856 -2.776,-68.144 -2.824,-11.012 -6.809,-21.581 -11.853,-31.767 -2.476,-5 -5.246,-9.862 -8.37,-14.487 -2.378,-3.521 -5.105,-8.119 -8.638,-10.559 -0.761,-0.527 -1.49,0.466 -1.16,1.16 z"
   id="path210" />

					</g>

				</g>

				<g
   id="g214"
   style="fill:none;stroke:#ded6ca;stroke-opacity:1">
					<g
   id="g213"
   style="fill:none;stroke:#ded6ca;stroke-opacity:1">
						<path
   style="fill:none;stroke:#ded6ca;stroke-opacity:1"
   d="m 902.459,1272.958 c -4.33,5.047 -5.887,12.109 -7.028,18.509 -1.492,8.366 -1.931,16.899 -2.003,25.384 -0.143,17.076 1.645,34.044 2.111,51.096 0.017,0.616 0.946,0.618 0.959,0 0.331,-16.06 -1.124,-32.104 -1.161,-48.162 -0.02,-8.628 0.274,-17.319 1.614,-25.856 1.137,-7.242 3.562,-13.853 5.877,-20.755 0.069,-0.206 -0.226,-0.383 -0.369,-0.216 z"
   id="path212" />

					</g>

				</g>

				<g
   id="g216"
   style="fill:none;stroke:#ded6ca;stroke-opacity:1">
					<g
   id="g215"
   style="fill:none;stroke:#ded6ca;stroke-opacity:1">
						<path
   style="fill:none;stroke:#ded6ca;stroke-opacity:1"
   d="m 952.15,1197.741 c -4.949,7.476 -7.486,16.09 -9.757,24.697 -2.609,9.889 -4.573,19.968 -6.06,30.084 -2.777,18.895 -5.16,38.36 -5.484,57.472 -0.014,0.817 1.272,1.022 1.449,0.196 3.967,-18.566 4.839,-37.891 7.714,-56.654 1.471,-9.605 3.111,-19.183 5.423,-28.626 2.21,-9.025 5.397,-17.749 7.793,-26.715 0.177,-0.662 -0.714,-1.004 -1.078,-0.454 z"
   id="path214" />

					</g>

				</g>

				<g
   id="g218"
   style="fill:none;stroke:#ded6ca;stroke-opacity:1">
					<g
   id="g217"
   style="fill:none;stroke:#ded6ca;stroke-opacity:1">
						<path
   style="fill:none;stroke:#ded6ca;stroke-opacity:1"
   d="m 986.11,1169.914 c -3.323,6.304 -4.954,13.456 -6.765,20.311 -1.984,7.505 -3.771,15.064 -5.201,22.694 -2.757,14.717 -4.662,29.499 -6.199,44.388 -0.059,0.574 0.916,0.711 1.014,0.137 2.506,-14.592 5.17,-29.194 8.311,-43.664 1.581,-7.282 3.161,-14.567 4.999,-21.789 1.806,-7.099 4.408,-14.123 5.526,-21.368 0.147,-0.951 -1.156,-1.713 -1.685,-0.709 z"
   id="path216" />

					</g>

				</g>

				<g
   id="g220"
   style="fill:none;stroke:#ded6ca;stroke-opacity:1">
					<g
   id="g219"
   style="fill:none;stroke:#ded6ca;stroke-opacity:1">
						<path
   style="fill:none;stroke:#ded6ca;stroke-opacity:1"
   d="m 1024.78,1148.76 c -5.49,2.338 -8.453,8.347 -10.866,13.578 -3.27,7.087 -5.466,14.683 -7.401,22.225 -3.784,14.745 -6.232,29.823 -8.679,44.835 -0.198,1.212 1.42,1.683 1.849,0.51 4.886,-13.361 6.713,-27.928 10.078,-41.722 1.791,-7.341 3.831,-14.665 6.661,-21.681 2.444,-6.059 5.904,-11.347 9.216,-16.887 0.353,-0.591 -0.323,-1.086 -0.858,-0.858 z"
   id="path218" />

					</g>

				</g>

				<g
   id="g222"
   style="fill:none;stroke:#ded6ca;stroke-opacity:1">
					<g
   id="g221"
   style="fill:none;stroke:#ded6ca;stroke-opacity:1">
						<path
   style="fill:none;stroke:#ded6ca;stroke-opacity:1"
   d="m 1060.222,1133.056 c -6.591,5.993 -9.679,15.157 -12.412,23.42 -3.197,9.666 -5.116,19.659 -7.688,29.494 -0.267,1.02 1.225,1.41 1.565,0.431 3.078,-8.874 5.619,-17.913 8.373,-26.89 2.783,-9.073 6.746,-17.326 11.147,-25.695 0.333,-0.634 -0.453,-1.244 -0.985,-0.76 z"
   id="path220" />

					</g>

				</g>

				<g
   id="g224"
   style="fill:none;stroke:#ded6ca;stroke-opacity:1">
					<g
   id="g223"
   style="fill:none;stroke:#ded6ca;stroke-opacity:1">
						<path
   style="fill:none;stroke:#ded6ca;stroke-opacity:1"
   d="m 1093.12,1123.483 c -4.854,2.088 -7.721,7.827 -9.804,12.364 -2.872,6.254 -4.774,12.913 -6.379,19.589 -3.157,13.136 -4.645,26.631 -8.018,39.709 -0.27,1.048 1.351,1.834 1.82,0.767 4.996,-11.376 6.432,-24.2 9.045,-36.251 1.447,-6.672 3.097,-13.367 5.625,-19.723 2.265,-5.696 5.877,-10.033 8.972,-15.195 0.519,-0.864 -0.475,-1.598 -1.261,-1.26 z"
   id="path222" />

					</g>

				</g>

				<g
   id="g226"
   style="fill:none;stroke:#ded6ca;stroke-opacity:1">
					<g
   id="g225"
   style="fill:none;stroke:#ded6ca;stroke-opacity:1">
						<path
   style="fill:none;stroke:#ded6ca;stroke-opacity:1"
   d="m 1116.595,1121.646 c -0.441,25.205 -1.303,49.99 -3.912,75.076 -0.08,0.769 1.092,0.864 1.304,0.176 7.421,-24.059 4.507,-50.475 4.01,-75.252 -0.019,-0.901 -1.386,-0.903 -1.402,0 z"
   id="path224" />

					</g>

				</g>

				<g
   id="g228"
   style="fill:none;stroke:#ded6ca;stroke-opacity:1">
					<g
   id="g227"
   style="fill:none;stroke:#ded6ca;stroke-opacity:1">
						<path
   style="fill:none;stroke:#ded6ca;stroke-opacity:1"
   d="m 1135.527,1121.705 c 0.993,7.264 4.016,14.159 6.218,21.112 2.225,7.024 4.133,14.159 5.795,21.337 3.523,15.216 3.92,30.289 5.197,45.742 0.126,1.528 2.424,2.058 2.825,0.382 3.615,-15.088 1.111,-31.881 -2.522,-46.723 -1.899,-7.758 -4.506,-15.292 -7.423,-22.722 -2.621,-6.677 -5.224,-13.674 -9.72,-19.344 -0.156,-0.196 -0.395,0.03 -0.37,0.216 z"
   id="path226" />

					</g>

				</g>

				<g
   id="g230"
   style="fill:none;stroke:#ded6ca;stroke-opacity:1">
					<g
   id="g229"
   style="fill:none;stroke:#ded6ca;stroke-opacity:1">
						<path
   style="fill:none;stroke:#ded6ca;stroke-opacity:1"
   d="m 1159.839,1123.502 c 5.41,10.416 11.221,20.61 15.996,31.349 4.853,10.915 8.01,22.416 12.657,33.377 0.558,1.316 2.781,0.641 2.68,-0.726 -0.848,-11.48 -5.949,-22.897 -10.792,-33.205 -5.23,-11.131 -11.175,-22.113 -18.693,-31.874 -0.821,-1.064 -2.501,-0.179 -1.848,1.079 z"
   id="path228" />

					</g>

				</g>

				<g
   id="g232"
   style="fill:none;stroke:#ded6ca;stroke-opacity:1">
					<g
   id="g231"
   style="fill:none;stroke:#ded6ca;stroke-opacity:1">
						<path
   style="fill:none;stroke:#ded6ca;stroke-opacity:1"
   d="m 1189.192,1129.867 c 3.615,6.658 7.95,12.825 11.26,19.686 3.883,8.047 7.209,16.437 10.097,24.89 2.737,8.01 5.061,16.152 7.148,24.354 1.873,7.362 3.173,14.984 5.674,22.161 0.697,2 4.056,1.843 3.912,-0.529 -0.474,-7.778 -2.523,-15.522 -4.39,-23.064 -2.21,-8.929 -4.76,-17.788 -7.785,-26.476 -2.861,-8.217 -6.14,-16.223 -10.434,-23.803 -3.682,-6.498 -8.263,-13.883 -14.624,-18.076 -0.547,-0.362 -1.142,0.333 -0.858,0.857 z"
   id="path230" />

					</g>

				</g>

				<g
   id="g234"
   style="fill:none;stroke:#ded6ca;stroke-opacity:1">
					<g
   id="g233"
   style="fill:none;stroke:#ded6ca;stroke-opacity:1">
						<path
   style="fill:none;stroke:#ded6ca;stroke-opacity:1"
   d="m 1229.26,1144.892 c 16.083,12.118 24.004,34.193 30.172,52.57 6.259,18.647 11.289,38.18 14.562,57.59 0.263,1.562 2.814,1.191 2.753,-0.373 -0.816,-20.958 -7.004,-41.849 -14.288,-61.387 -3.968,-10.644 -8.48,-21.219 -14.572,-30.838 -4.526,-7.146 -10.105,-14.979 -17.994,-18.645 -0.742,-0.345 -1.275,0.599 -0.633,1.083 z"
   id="path232" />

					</g>

				</g>

				<g
   id="g236"
   style="fill:none;stroke:#ded6ca;stroke-opacity:1">
					<g
   id="g235"
   style="fill:none;stroke:#ded6ca;stroke-opacity:1">
						<path
   style="fill:none;stroke:#ded6ca;stroke-opacity:1"
   d="m 1270.024,1170.477 c 2.687,6.519 6.267,12.64 9.213,19.047 3.974,8.642 7.603,17.466 11.08,26.318 3.298,8.396 6.2,16.936 8.402,25.688 1.893,7.525 2.658,15.186 4.291,22.727 0.295,1.364 2.265,1.232 2.631,0 2.079,-6.977 0.358,-15.315 -1.202,-22.225 -2.127,-9.418 -5.537,-18.631 -9.193,-27.549 -3.502,-8.544 -7.57,-16.877 -12.161,-24.885 -3.806,-6.638 -7.369,-13.703 -12.445,-19.48 -0.232,-0.265 -0.757,0.016 -0.616,0.359 z"
   id="path234" />

					</g>

				</g>

				<g
   id="g238"
   style="fill:none;stroke:#ded6ca;stroke-opacity:1">
					<g
   id="g237"
   style="fill:none;stroke:#ded6ca;stroke-opacity:1">
						<path
   style="fill:none;stroke:#ded6ca;stroke-opacity:1"
   d="m 1312.712,1213.587 c 0.923,1.134 1.678,3.983 2.314,5.418 1.324,2.99 2.498,6.017 3.546,9.116 2.798,8.277 5.158,16.71 7.333,25.17 3.733,14.523 6.099,29.434 10.251,43.833 0.372,1.291 2.138,0.947 2.246,-0.304 0.547,-6.363 -0.938,-13.063 -2.281,-19.251 -2.05,-9.447 -4.449,-18.832 -7.053,-28.141 -2.412,-8.623 -4.97,-17.243 -8.367,-25.537 -1.73,-4.224 -3.311,-9.121 -7.665,-10.858 -0.344,-0.137 -0.506,0.33 -0.324,0.554 z"
   id="path236" />

					</g>

				</g>

			</g>

			<g
   id="g241"
   style="fill:none;stroke:#ded6ca;stroke-opacity:1">
				<path
   style="fill:none;stroke:#ded6ca;stroke-opacity:1"
   d="m 1567.435,1137.367 c -19.568,-36.692 -168.393,22.481 -265.599,61.322 l 13.972,18.445 c 32.341,-11.197 139.147,-40.255 148.255,-26.714 9.113,13.54 -124.24,142.507 -290.127,235.519 -137.704,77.205 -352.781,132.759 -362.753,119.899 -9.967,-12.849 48.427,-63.106 87.31,-92.295 l -8.163,-24.92 c -82.354,57.073 -210.381,156.753 -192.195,199.915 18.17,43.162 286.401,-57.525 487.994,-166.014 296.202,-159.407 400.869,-288.46 381.306,-325.157 z"
   id="path239" />

				<g
   id="g240"
   style="fill:none;stroke:#ded6ca;stroke-opacity:1">
					<path
   style="fill:none;stroke:#ded6ca;stroke-opacity:1"
   d="m 1570.492,1135.58 c -5.084,-9.178 -15.858,-12.072 -25.599,-12.971 -15.34,-1.416 -31.152,1.397 -46.114,4.529 -43.368,9.078 -85.456,24.621 -126.801,40.273 -23.802,9.011 -47.449,18.422 -71.082,27.864 -1.864,0.745 -3.642,3.186 -2.116,5.201 4.657,6.148 9.315,12.296 13.972,18.445 0.91,1.202 2.407,2.176 3.998,1.627 29.359,-10.122 59.824,-17.944 90.223,-24.202 14.078,-2.898 28.588,-5.854 43.021,-5.909 3.675,-0.014 7.617,0.287 10.636,1.558 1.253,0.527 -0.244,0.283 0.314,-0.327 -0.571,0.624 0.14,0.724 -0.332,1.995 -2.02,5.435 -7.373,12.143 -11.642,17.255 -8.262,9.896 -17.304,19.147 -26.515,28.155 -28.073,27.455 -58.322,52.734 -89.349,76.766 -76.179,59.004 -158.304,110.933 -247.028,148.871 -40.432,17.289 -81.824,32.389 -123.716,45.737 -33.47,10.664 -67.358,20.431 -101.738,27.721 -10.763,2.282 -21.635,4.443 -32.597,5.508 -3.461,0.336 -6.974,0.61 -10.453,0.427 -1.667,-0.088 -1.548,-0.056 -2.742,-0.323 -1.335,-0.298 -0.998,-0.589 -0.835,-0.125 -0.021,-0.06 -0.478,-0.869 -0.394,-2.001 0.18,-2.427 1.651,-4.929 2.841,-6.965 3.725,-6.378 8.742,-11.996 13.761,-17.372 14.153,-15.159 30.004,-28.78 46.049,-41.881 7.884,-6.438 15.894,-12.72 24.028,-18.838 1.222,-0.919 2.151,-2.397 1.627,-3.998 -2.721,-8.307 -5.442,-16.614 -8.163,-24.92 -0.66,-2.015 -3.225,-3.486 -5.201,-2.116 -44.773,31.053 -88.776,63.858 -129.028,100.653 -17.431,15.934 -34.437,32.742 -48.518,51.77 -8.897,12.022 -19.079,27.481 -18.093,43.184 1.594,25.389 34.158,22.011 51.965,19.73 42.879,-5.493 84.88,-19.517 125.522,-33.72 56.286,-19.67 111.482,-42.509 165.834,-66.986 59.18,-26.651 117.338,-55.541 174.185,-86.865 58.196,-32.067 115.268,-66.358 169.923,-104.179 39.346,-27.228 77.691,-56.26 112.964,-88.646 22.968,-21.089 45.412,-43.79 62.731,-69.868 8.752,-13.177 19.148,-30.486 16.943,-47.073 -0.373,-2.812 -1.16,-5.462 -2.481,-7.984 -2.115,-4.038 -8.228,-0.463 -6.114,3.574 0.594,1.134 1.585,4.662 1.687,5.859 0.262,3.098 0,5.917 -0.444,8.3 -1.494,7.952 -4.859,15.295 -8.736,22.328 -12.938,23.473 -31.621,43.795 -50.498,62.586 -30.467,30.329 -64.126,57.428 -98.755,82.83 -48.386,35.494 -99.14,67.721 -150.966,97.931 -56.534,32.955 -114.437,63.51 -173.5,91.679 -54.732,26.103 -110.371,50.407 -166.979,72.161 -45.153,17.352 -91.129,33.753 -138.301,44.754 -15.525,3.621 -31.376,6.829 -47.344,7.527 -8.363,0.366 -20.044,0.603 -26.472,-4.511 -2.437,-1.939 -3.791,-5.409 -4.085,-9.427 -0.472,-6.452 1.662,-12.977 4.336,-18.76 8.302,-17.954 22.134,-33.322 35.714,-47.44 36.771,-38.228 79.384,-71.023 122.216,-102.111 9.878,-7.169 19.837,-14.226 29.866,-21.182 -1.734,-0.705 -3.467,-1.411 -5.201,-2.116 2.721,8.307 5.442,16.613 8.163,24.92 0.542,-1.333 1.085,-2.665 1.627,-3.998 -17.651,13.276 -34.866,27.196 -51.221,42.046 -12.816,11.636 -27.611,24.424 -35.91,39.921 -3.347,6.25 -5.322,16.114 3.627,18.213 7.233,1.697 15.562,0.131 22.766,-0.87 30.615,-4.252 60.816,-12.53 90.467,-21.053 42.281,-12.153 84.019,-26.301 124.999,-42.298 42.511,-16.595 84.444,-35.135 124.289,-57.449 47.346,-26.515 92.862,-56.338 136.509,-88.565 35.292,-26.058 69.593,-53.651 101.749,-83.517 11.523,-10.702 22.819,-21.701 33.364,-33.376 6.373,-7.056 13.026,-14.455 17.711,-22.79 2.664,-4.74 5.087,-11.039 -0.557,-14.682 -8.258,-5.331 -22.225,-2.55 -31.211,-1.395 -34.274,4.407 -68.244,13.592 -101.271,23.565 -5.746,1.735 -11.476,3.528 -17.15,5.485 1.333,0.542 2.666,1.085 3.998,1.627 -4.657,-6.148 -9.315,-12.296 -13.972,-18.445 -0.705,1.734 -1.41,3.467 -2.116,5.201 40.984,-16.376 82.023,-32.716 123.827,-46.907 19.761,-6.708 39.708,-12.982 59.972,-18 15.855,-3.926 32.158,-7.432 48.549,-7.797 9.63,-0.214 23.883,0.061 29.252,9.754 2.209,3.989 8.326,0.421 6.115,-3.572 z"
   id="path240" />

				</g>

			</g>

			<g
   id="g254"
   style="fill:none;stroke:#ded6ca;stroke-opacity:1">
				<g
   id="g243"
   style="fill:none;stroke:#ded6ca;stroke-opacity:1">
					<g
   id="g242"
   style="fill:none;stroke:#ded6ca;stroke-opacity:1">
						<path
   style="fill:none;stroke:#ded6ca;stroke-opacity:1"
   d="m 821.623,1493.983 c -15.484,11.736 -29.567,25.388 -42.712,39.705 -14.041,15.293 -28.298,32.249 -35.887,51.827 -3.21,8.28 -5.317,17.558 -2.021,26.106 0.342,0.888 1.582,0.549 1.422,-0.392 -3.036,-17.901 6.856,-35.044 16.767,-49.121 12.369,-17.569 27.483,-33.247 42.932,-48.113 6.713,-6.46 13.406,-12.821 19.901,-19.49 0.253,-0.26 -0.091,-0.757 -0.402,-0.522 z"
   id="path241" />

					</g>

				</g>

				<g
   id="g245"
   style="fill:none;stroke:#ded6ca;stroke-opacity:1">
					<g
   id="g244"
   style="fill:none;stroke:#ded6ca;stroke-opacity:1">
						<path
   style="fill:none;stroke:#ded6ca;stroke-opacity:1"
   d="m 775.708,1575.831 c -1.006,14.34 17.349,16.185 27.741,16.172 23.392,-0.028 47.211,-7.048 69.466,-13.549 56.709,-16.563 111.667,-39.426 166.099,-62.214 10.519,-4.403 20.961,-9.019 31.371,-13.673 5.554,-2.483 11.272,-5.715 17.078,-7.552 0.947,-0.299 0.542,-1.795 -0.412,-1.493 -13.378,4.231 -26.338,9.659 -39.373,14.884 -24.748,9.92 -49.246,20.439 -74.066,30.187 -27.92,10.965 -56.053,21.462 -84.612,30.655 -24.06,7.744 -48.726,15.474 -73.899,18.575 -12.215,1.504 -35.89,4.72 -39.177,-12.021 -0.024,-0.13 -0.208,-0.089 -0.216,0.029 z"
   id="path243" />

					</g>

				</g>

				<g
   id="g247"
   style="fill:none;stroke:#ded6ca;stroke-opacity:1">
					<g
   id="g246"
   style="fill:none;stroke:#ded6ca;stroke-opacity:1">
						<path
   style="fill:none;stroke:#ded6ca;stroke-opacity:1"
   d="m 1394.244,1175.558 c 12.544,0.276 24.556,-3.186 36.673,-6.177 14.123,-3.486 28.67,-6.651 43.229,-7.418 15.129,-0.797 38.701,2.71 32.877,23.109 -4.77,16.708 -19.281,31.043 -31.142,43.009 -15.499,15.634 -32.286,30.006 -49.344,43.901 -12.898,10.507 -27.084,20.031 -39.005,31.668 -0.873,0.852 0.301,2.492 1.341,1.738 30.928,-22.436 61.404,-46.727 88.253,-73.953 12.381,-12.555 27.138,-27.405 32.331,-44.785 1.637,-5.479 1.951,-11.624 -1.231,-16.625 -4.279,-6.722 -12.773,-9.172 -20.244,-9.955 -15.989,-1.676 -32.666,2.249 -48.182,5.673 -15.063,3.324 -30.352,7.255 -45.593,9.525 -0.172,0.026 -0.124,0.287 0.037,0.29 z"
   id="path245" />

					</g>

				</g>

				<g
   id="g249"
   style="fill:none;stroke:#ded6ca;stroke-opacity:1">
					<g
   id="g248"
   style="fill:none;stroke:#ded6ca;stroke-opacity:1">
						<path
   style="fill:none;stroke:#ded6ca;stroke-opacity:1"
   d="m 1514.032,1149.29 c 7.428,3.238 11.51,10.379 14.874,17.388 0.162,0.337 0.728,0.1 0.607,-0.256 -2.627,-7.704 -7.057,-14.937 -14.811,-18.279 -0.775,-0.334 -1.454,0.805 -0.67,1.147 z"
   id="path247" />

					</g>

				</g>

				<g
   id="g251"
   style="fill:none;stroke:#ded6ca;stroke-opacity:1">
					<g
   id="g250"
   style="fill:none;stroke:#ded6ca;stroke-opacity:1">
						<path
   style="fill:none;stroke:#ded6ca;stroke-opacity:1"
   d="m 1275.749,1375.87 c 53.811,-34.602 100.582,-78.734 152.884,-115.448 0.574,-0.403 0.05,-1.343 -0.558,-0.955 -53.982,34.39 -100.158,79.385 -152.623,115.893 -0.309,0.215 -0.027,0.718 0.297,0.51 z"
   id="path249" />

					</g>

				</g>

				<g
   id="g253"
   style="fill:none;stroke:#ded6ca;stroke-opacity:1">
					<g
   id="g252"
   style="fill:none;stroke:#ded6ca;stroke-opacity:1">
						<path
   style="fill:none;stroke:#ded6ca;stroke-opacity:1"
   d="m 1330.565,1359.465 c 26.649,-20.531 54.258,-39.774 81.072,-60.087 26.5,-20.075 53.132,-40.446 76.5,-64.178 0.607,-0.616 -0.298,-1.492 -0.939,-0.939 -25.763,22.25 -52.038,43.757 -79.198,64.286 -26.199,19.803 -52.356,39.683 -77.659,60.628 -0.159,0.132 0.058,0.418 0.224,0.29 z"
   id="path251" />

					</g>

				</g>

			</g>

		</g>

		<g
   id="g326"
   style="fill:none;stroke:#ded6ca;stroke-opacity:1">
			<g
   id="g294"
   style="fill:none;stroke:#ded6ca;stroke-opacity:1">
				<g
   id="g257"
   style="fill:none;stroke:#ded6ca;stroke-opacity:1">
					<g
   id="g256"
   style="fill:none;stroke:#ded6ca;stroke-opacity:1">
						<path
   style="fill:none;stroke:#ded6ca;stroke-opacity:1"
   d="m 860.073,510.981 c -10.43,13.529 -17.527,30.43 -24.13,46.104 -6.898,16.374 -12.652,33.205 -17.43,50.315 -10.064,36.041 -15.851,73.259 -18.326,110.573 -5.02,75.699 3.367,153.102 25.037,225.831 11.019,36.983 25.028,74.866 47.174,106.743 1.078,1.551 3.404,0.221 2.543,-1.487 -15.505,-30.765 -29.969,-61.768 -40.596,-94.605 -11.451,-35.383 -19.447,-71.902 -24.341,-108.758 -9.822,-73.958 -7.999,-150.629 9.661,-223.294 4.724,-19.436 10.663,-38.58 17.95,-57.211 3.545,-9.064 7.436,-17.991 11.69,-26.745 4.257,-8.761 9.297,-17.121 13.312,-25.979 0.794,-1.753 -1.392,-2.981 -2.544,-1.487 z"
   id="path255" />

					</g>

				</g>

				<g
   id="g259"
   style="fill:none;stroke:#ded6ca;stroke-opacity:1">
					<g
   id="g258"
   style="fill:none;stroke:#ded6ca;stroke-opacity:1">
						<path
   style="fill:none;stroke:#ded6ca;stroke-opacity:1"
   d="m 884.545,517.336 c -5.001,39.593 -2.979,80.44 3.05,119.801 5.833,38.083 16.265,75.344 30.489,111.133 28.642,72.067 72.363,137.401 124.768,194.327 29.752,32.319 62.094,63.643 98.145,88.892 1.968,1.378 4.373,-1.739 2.573,-3.335 -29.116,-25.817 -58.681,-50.89 -85.627,-79.043 -26.769,-27.968 -51.511,-57.959 -73.434,-89.88 -43.165,-62.85 -75.036,-133.499 -89.077,-208.654 -8.26,-44.21 -9.067,-88.468 -6.503,-133.241 0.165,-2.878 -4.04,-2.719 -4.384,0 z"
   id="path257" />

					</g>

				</g>

				<g
   id="g261"
   style="fill:none;stroke:#ded6ca;stroke-opacity:1">
					<g
   id="g260"
   style="fill:none;stroke:#ded6ca;stroke-opacity:1">
						<path
   style="fill:none;stroke:#ded6ca;stroke-opacity:1"
   d="m 857.053,530.233 c -1.24,19.772 -4.246,39.23 -8.499,58.569 -4.179,19.005 -9.044,37.872 -12.551,57.02 -6.459,35.258 -5.275,70.796 -0.502,106.197 9.117,67.627 31.997,134.25 66.81,192.975 18.943,31.954 41.358,63.315 69.221,88.102 0.726,0.646 1.714,-0.34 1.066,-1.066 -22.229,-24.846 -43.05,-50.579 -60.493,-79.059 -18.056,-29.48 -33.176,-60.778 -45.08,-93.23 -11.672,-31.82 -20.359,-64.769 -25.608,-98.26 -5.441,-34.713 -8.016,-70.711 -2.529,-105.562 3.358,-21.326 8.858,-42.224 13.518,-63.284 4.514,-20.401 8.523,-41.446 7.182,-62.402 -0.105,-1.628 -2.433,-1.632 -2.535,0 z"
   id="path259" />

					</g>

				</g>

				<g
   id="g263"
   style="fill:none;stroke:#ded6ca;stroke-opacity:1">
					<g
   id="g262"
   style="fill:none;stroke:#ded6ca;stroke-opacity:1">
						<path
   style="fill:none;stroke:#ded6ca;stroke-opacity:1"
   d="m 873.83,537.68 c -7.03,27.454 -8.018,57.185 -8.606,85.395 -0.616,29.58 0.803,59.217 4.456,88.581 7.229,58.109 23.149,115.359 51.015,167.066 7.807,14.487 16.518,28.476 26.291,41.721 9.473,12.838 19.841,25.814 31.962,36.255 0.916,0.789 2.047,-0.387 1.308,-1.308 -9.146,-11.403 -18.776,-22.301 -27.388,-34.148 -8.36,-11.499 -16.081,-23.5 -23.116,-35.853 -14.359,-25.21 -25.79,-52.017 -34.643,-79.631 -17.827,-55.612 -26.014,-113.888 -26.152,-172.227 -0.038,-16.075 0.533,-32.151 1.703,-48.183 1.156,-15.855 3.372,-31.66 4.179,-47.532 0.03,-0.581 -0.866,-0.694 -1.009,-0.136 z"
   id="path261" />

					</g>

				</g>

				<g
   id="g265"
   style="fill:none;stroke:#ded6ca;stroke-opacity:1">
					<g
   id="g264"
   style="fill:none;stroke:#ded6ca;stroke-opacity:1">
						<path
   style="fill:none;stroke:#ded6ca;stroke-opacity:1"
   d="m 824.787,1165.33 c -3.044,-3.567 -7.961,-5.269 -11.256,-8.808 -3.134,-3.365 -5.185,-7.555 -6.311,-11.99 -2.463,-9.703 -0.69,-20.169 2.532,-29.474 7.109,-20.529 23.725,-41.11 45.601,-46.47 5.796,-1.42 11.872,-1.519 17.686,-0.145 7.036,1.662 12.896,5.456 19.307,8.562 2.012,0.975 3.704,-1.317 2.324,-3.012 -8.214,-10.095 -23.142,-13.969 -35.628,-12.389 -12.314,1.559 -23.363,8.167 -32.207,16.656 -16.617,15.952 -30.094,42.299 -24.981,65.849 1.207,5.559 3.701,10.817 7.494,15.079 3.502,3.935 9.465,8.668 15.016,7.745 0.773,-0.129 0.842,-1.113 0.423,-1.603 z"
   id="path263" />

					</g>

				</g>

				<g
   id="g267"
   style="fill:none;stroke:#ded6ca;stroke-opacity:1">
					<g
   id="g266"
   style="fill:none;stroke:#ded6ca;stroke-opacity:1">
						<path
   style="fill:none;stroke:#ded6ca;stroke-opacity:1"
   d="m 885.763,1111.922 c 0.691,-3.28 -0.113,-6.656 0.375,-9.994 0.464,-3.17 1.751,-6.137 3.647,-8.715 3.891,-5.292 10.153,-8.614 16.282,-10.603 6.998,-2.271 14.415,-3.011 21.741,-2.474 7.329,0.537 13.971,3.291 21.092,4.521 1.905,0.329 3.05,-1.655 1.833,-3.149 -5.14,-6.309 -15.324,-8.033 -22.925,-8.518 -8.903,-0.569 -18.153,0.681 -26.454,3.995 -7.042,2.812 -13.882,7.417 -17.613,14.215 -3.175,5.785 -4.959,15.949 0.019,21.25 0.595,0.634 1.818,0.35 2.003,-0.528 z"
   id="path265" />

					</g>

				</g>

				<g
   id="g269"
   style="fill:none;stroke:#ded6ca;stroke-opacity:1">
					<g
   id="g268"
   style="fill:none;stroke:#ded6ca;stroke-opacity:1">
						<path
   style="fill:none;stroke:#ded6ca;stroke-opacity:1"
   d="m 918.416,1076.851 c -4.617,-9.425 -4.284,-19.08 2.02,-27.603 5.972,-8.074 14.558,-11.679 23.385,-15.685 1.497,-0.679 0.608,-2.796 -0.778,-2.872 -11.473,-0.631 -22.767,8.511 -28.586,17.713 -6.173,9.762 -6.858,21.884 1.216,30.563 1.415,1.522 3.579,-0.409 2.743,-2.116 z"
   id="path267" />

					</g>

				</g>

				<g
   id="g271"
   style="fill:none;stroke:#ded6ca;stroke-opacity:1">
					<g
   id="g270"
   style="fill:none;stroke:#ded6ca;stroke-opacity:1">
						<path
   style="fill:none;stroke:#ded6ca;stroke-opacity:1"
   d="m 968.619,1066.251 c 0.131,-3.522 -0.621,-6.864 0.616,-10.289 1.026,-2.84 2.961,-5.251 5.289,-7.145 5.715,-4.648 13.581,-6.561 20.812,-6.696 7.966,-0.149 16.103,1.847 22.642,6.522 3.359,2.402 6.143,5.517 8.174,9.109 2.374,4.197 2.679,9.404 5.469,13.263 1.251,1.731 3.627,1.427 4.382,-0.573 2.83,-7.5 -3.647,-17.653 -8.698,-22.895 -5.432,-5.639 -12.776,-9.312 -20.403,-10.885 -13.176,-2.717 -30.067,-0.358 -39.055,10.661 -4.229,5.185 -6.841,13.895 -2.865,19.915 1.066,1.614 3.563,0.992 3.637,-0.987 z"
   id="path269" />

					</g>

				</g>

				<g
   id="g273"
   style="fill:none;stroke:#ded6ca;stroke-opacity:1">
					<g
   id="g272"
   style="fill:none;stroke:#ded6ca;stroke-opacity:1">
						<path
   style="fill:none;stroke:#ded6ca;stroke-opacity:1"
   d="m 1195.912,1017.13 c -1.844,-1.123 -2.652,-2.934 -5.019,-3.78 -2.643,-0.945 -5.808,-1.094 -8.591,-1.186 -5.599,-0.185 -11.274,0.65 -16.64,2.229 -11.13,3.274 -21.327,9.741 -29.428,18.005 -7.873,8.032 -14.249,18.156 -16.731,29.213 -2.024,9.012 -2.614,25.61 6.61,30.845 1.04,0.59 2.279,-0.164 2.319,-1.331 0.167,-4.855 -2.337,-9.171 -3.167,-14.009 -0.85,-4.956 -0.663,-10.058 0.438,-14.96 2.292,-10.211 7.99,-19.301 15.365,-26.621 7.535,-7.479 16.919,-13.302 27.172,-16.186 4.95,-1.392 10.06,-2.059 15.202,-1.804 2.28,0.113 4.509,0.646 6.78,0.765 1.798,0.094 3.922,-0.823 5.534,-0.607 0.321,0.045 0.394,-0.428 0.156,-0.573 z"
   id="path271" />

					</g>

				</g>

				<g
   id="g275"
   style="fill:none;stroke:#ded6ca;stroke-opacity:1">
					<g
   id="g274"
   style="fill:none;stroke:#ded6ca;stroke-opacity:1">
						<path
   style="fill:none;stroke:#ded6ca;stroke-opacity:1"
   d="m 1127.194,1055.5 c -9.56,-16.597 -30.592,-17.032 -44.555,-6.125 -15.244,11.907 -24.507,31.991 -27.705,50.713 -1.412,8.264 -3.721,23.319 3.345,29.78 0.805,0.736 2.323,0.511 2.576,-0.68 1.008,-4.737 -0.373,-10.081 -0.437,-14.896 -0.072,-5.458 0.574,-10.895 1.745,-16.221 2.414,-10.98 6.852,-21.573 13.219,-30.853 5.317,-7.749 12.697,-15.469 22.021,-18.069 10.747,-2.997 18.522,3.544 26.839,9.304 1.838,1.272 3.975,-1.179 2.952,-2.953 z"
   id="path273" />

					</g>

				</g>

				<g
   id="g277"
   style="fill:none;stroke:#ded6ca;stroke-opacity:1">
					<g
   id="g276"
   style="fill:none;stroke:#ded6ca;stroke-opacity:1">
						<path
   style="fill:none;stroke:#ded6ca;stroke-opacity:1"
   d="m 1011.202,1092.448 c 3.704,-4.8 6.922,-9.734 11.74,-13.546 4.505,-3.565 9.749,-6.283 15.267,-7.877 5.347,-1.545 11.05,-2.002 16.525,-0.864 3.002,0.624 5.73,1.73 8.421,3.181 2.13,1.148 3.879,2.245 6.379,1.654 0.701,-0.166 1.248,-0.904 1.232,-1.618 -0.131,-5.954 -9.598,-8.553 -14.301,-9.495 -6.599,-1.322 -13.494,-0.861 -19.926,1.083 -11.673,3.528 -25.79,13.505 -28.028,26.348 -0.298,1.703 1.669,2.458 2.691,1.134 z"
   id="path275" />

					</g>

				</g>

				<g
   id="g279"
   style="fill:none;stroke:#ded6ca;stroke-opacity:1">
					<g
   id="g278"
   style="fill:none;stroke:#ded6ca;stroke-opacity:1">
						<path
   style="fill:none;stroke:#ded6ca;stroke-opacity:1"
   d="m 1113.867,1113.853 c 2.8,-7.005 7.908,-15.017 14.252,-19.248 7.794,-5.198 15.77,-4.322 23.51,0.385 3.935,2.393 7.047,-3.418 3.526,-6.033 -8.693,-6.459 -20.253,-6.654 -29.31,-0.813 -4.208,2.714 -7.712,6.387 -10.429,10.58 -3.128,4.828 -3.862,9.276 -3.904,14.811 -0.011,1.441 1.879,1.509 2.355,0.318 z"
   id="path277" />

					</g>

				</g>

				<g
   id="g281"
   style="fill:none;stroke:#ded6ca;stroke-opacity:1">
					<g
   id="g280"
   style="fill:none;stroke:#ded6ca;stroke-opacity:1">
						<path
   style="fill:none;stroke:#ded6ca;stroke-opacity:1"
   d="m 1225.597,1000.66 c -11.641,-8.088 -24.478,4.719 -29.873,14.35 -4.97,8.873 -10.797,29.789 2.281,34.919 1.74,0.683 3.765,-1.396 3.118,-3.118 -1.639,-4.362 -3.948,-7.862 -3.977,-12.685 -0.031,-5.286 1.639,-10.63 4.07,-15.283 4.465,-8.547 12.718,-16.931 23.193,-15.367 1.707,0.256 2.688,-1.774 1.188,-2.816 z"
   id="path279" />

					</g>

				</g>

				<g
   id="g283"
   style="fill:none;stroke:#ded6ca;stroke-opacity:1">
					<g
   id="g282"
   style="fill:none;stroke:#ded6ca;stroke-opacity:1">
						<path
   style="fill:none;stroke:#ded6ca;stroke-opacity:1"
   d="m 865.203,1162.165 c -12.758,-14.208 -35.489,-8.936 -49.446,0.196 -16.569,10.842 -29.517,28.688 -34.45,47.89 -1.348,5.245 -2.134,10.766 -1.948,16.189 0.142,4.116 0.719,10.969 4.101,13.792 0.917,0.766 2.489,0.581 2.805,-0.741 1.049,-4.386 -0.848,-10.006 -0.835,-14.619 0.016,-5.511 1.015,-10.948 2.64,-16.203 3.449,-11.152 9.762,-21.486 17.711,-30 7.466,-7.996 16.749,-14.899 27.41,-17.864 10.888,-3.028 19.703,-0.05 29.563,4.533 2.052,0.954 4.041,-1.4 2.449,-3.173 z"
   id="path281" />

					</g>

				</g>

				<g
   id="g285"
   style="fill:none;stroke:#ded6ca;stroke-opacity:1">
					<g
   id="g284"
   style="fill:none;stroke:#ded6ca;stroke-opacity:1">
						<path
   style="fill:none;stroke:#ded6ca;stroke-opacity:1"
   d="m 895.948,1204.788 c -1.012,-16.27 4.716,-33.899 14.726,-46.688 4.515,-5.768 10.711,-11.519 18.165,-12.879 3.63,-0.662 7.359,-0.14 10.741,1.316 4.445,1.915 7.673,6.057 12.531,6.839 1.209,0.195 2.031,-0.657 1.854,-1.854 -1.352,-9.129 -15.43,-13.747 -23.433,-13.165 -9.194,0.668 -16.957,6.456 -22.604,13.395 -6.359,7.813 -10.829,17.178 -13.547,26.852 -2.4,8.543 -3.927,18.021 -0.451,26.456 0.401,0.975 2.096,0.994 2.018,-0.272 z"
   id="path283" />

					</g>

				</g>

				<g
   id="g287"
   style="fill:none;stroke:#ded6ca;stroke-opacity:1">
					<g
   id="g286"
   style="fill:none;stroke:#ded6ca;stroke-opacity:1">
						<path
   style="fill:none;stroke:#ded6ca;stroke-opacity:1"
   d="m 939.163,1167.566 c 4.763,-6.406 9.69,-12.086 17.759,-14.152 3.728,-0.954 7.695,-1.1 11.494,-0.472 3.111,0.514 6.181,2.348 9.119,0.405 0.6,-0.397 0.787,-0.979 0.677,-1.663 -1.376,-8.573 -19.365,-5.854 -24.785,-3.903 -8.247,2.969 -16.353,9.787 -16.433,19.197 -0.011,1.251 1.523,1.458 2.169,0.588 z"
   id="path285" />

					</g>

				</g>

				<g
   id="g289"
   style="fill:none;stroke:#ded6ca;stroke-opacity:1">
					<g
   id="g288"
   style="fill:none;stroke:#ded6ca;stroke-opacity:1">
						<path
   style="fill:none;stroke:#ded6ca;stroke-opacity:1"
   d="m 962.231,1149.525 c 0.246,-4.565 -0.15,-8.854 1.435,-13.262 1.696,-4.717 4.89,-8.824 8.646,-12.091 4.054,-3.526 8.952,-6.131 14.143,-7.513 4.846,-1.29 10.099,-0.547 14.829,-1.956 1.336,-0.398 1.372,-2.004 0.36,-2.754 -4.88,-3.615 -12.68,-2.243 -18.075,-0.579 -5.885,1.815 -11.335,4.967 -15.886,9.109 -7.203,6.557 -15.549,20.472 -8.579,29.894 0.975,1.318 3.032,0.906 3.127,-0.848 z"
   id="path287" />

					</g>

				</g>

				<g
   id="g291"
   style="fill:none;stroke:#ded6ca;stroke-opacity:1">
					<g
   id="g290"
   style="fill:none;stroke:#ded6ca;stroke-opacity:1">
						<path
   style="fill:none;stroke:#ded6ca;stroke-opacity:1"
   d="m 835.051,1234.115 c -8.957,-5.905 -23.169,-3.969 -32.421,0.15 -9.968,4.437 -17.684,12.853 -22.979,22.241 -11.195,19.851 -13.581,46.082 -4.351,67.127 5.064,11.547 14.514,21.322 27.041,24.28 1.311,0.31 2.108,-1.474 0.924,-2.191 -18.671,-11.292 -28.188,-29.964 -27.962,-51.681 0.208,-19.903 8.105,-42.102 25.489,-53.283 4.57,-2.939 9.694,-4.928 15.086,-5.684 6.394,-0.896 12.382,0.8 18.706,0.764 0.95,-0.01 1.216,-1.23 0.467,-1.723 z"
   id="path289" />

					</g>

				</g>

				<g
   id="g293"
   style="fill:none;stroke:#ded6ca;stroke-opacity:1">
					<g
   id="g292"
   style="fill:none;stroke:#ded6ca;stroke-opacity:1">
						<path
   style="fill:none;stroke:#ded6ca;stroke-opacity:1"
   d="m 1221.21,1032.737 c 5.624,-7.92 11.408,-16.106 21.506,-18.209 8.447,-1.759 17.039,1.054 24.205,5.487 8.349,5.165 14.95,12.683 19.821,21.146 5.389,9.363 6.495,18.981 8.197,29.396 0.246,1.504 2.37,1.223 2.774,0 3.595,-10.867 -0.747,-23.986 -6.051,-33.57 -5.406,-9.769 -13.969,-18.33 -23.783,-23.663 -8.499,-4.619 -19.025,-7.244 -28.504,-4.194 -4.636,1.492 -8.842,4.23 -12.205,7.737 -4.294,4.479 -6.602,9.16 -7.714,15.13 -0.201,1.084 1.115,1.639 1.754,0.74 z"
   id="path291" />

					</g>

				</g>

			</g>

			<g
   id="g325"
   style="fill:none;stroke:#ded6ca;stroke-opacity:1">
				<g
   id="g307"
   style="fill:none;stroke:#ded6ca;stroke-opacity:1">
					
						<path
   style="fill:none;stroke:#ded6ca;stroke-width:4.8711;stroke-linecap:round;stroke-linejoin:round;stroke-miterlimit:10;stroke-opacity:1"
   d="m 865.807,385.152 -78.263,56.115 c -23.599,16.806 -19.614,39.383 10.033,48.588 l 32.941,10.221 z"
   id="path294" />

					
						<path
   style="fill:none;stroke:#ded6ca;stroke-width:4.8711;stroke-linecap:round;stroke-linejoin:round;stroke-miterlimit:10;stroke-opacity:1"
   d="m 955.124,412.583 33.286,90.369 c 10.104,27.157 -5.876,43.604 -35.578,34.582 l -32.997,-10.033 z"
   id="path295" />

					
						<path
   style="fill:none;stroke:#ded6ca;stroke-width:4.8711;stroke-linecap:round;stroke-linejoin:round;stroke-miterlimit:10;stroke-opacity:1"
   d="m 874.274,343.095 c -10.877,18.206 -11.736,25.401 -11.736,25.401 l -42.994,139.981 104.443,32.071 42.989,-139.976 c 0,0 4.533,-9.715 4.935,-27.494 z"
   id="path296" />

					
						<path
   style="fill:none;stroke:#ded6ca;stroke-width:4.8711;stroke-linecap:round;stroke-linejoin:round;stroke-miterlimit:10;stroke-opacity:1"
   d="m 874.274,343.095 97.638,29.983 c -0.01,0.531 0.066,-4.297 -0.077,-7.55 -1.052,-24.463 -20.279,-73.19 -28.03,-75.571 -7.746,-2.379 -51.03,23.911 -65.622,46.806 -3.024,4.754 -5.23,8.541 -3.909,6.332 z"
   id="path297" />

					<g
   id="g299"
   style="fill:none;stroke:#ded6ca;stroke-opacity:1">
						
							<path
   style="fill:none;stroke:#ded6ca;stroke-width:4.8711;stroke-linecap:round;stroke-linejoin:round;stroke-miterlimit:10;stroke-opacity:1"
   d="m 917.797,374.758 c -24.041,-7.382 -49.515,6.12 -56.9,30.161 -7.38,24.041 6.12,49.51 30.16,56.89 24.051,7.383 49.515,-6.114 56.901,-30.152 7.385,-24.045 -6.12,-49.519 -30.161,-56.899 z m -23.685,77.119 c -18.557,-5.692 -28.976,-25.358 -23.279,-43.906 5.698,-18.552 25.357,-28.984 43.914,-23.279 18.557,5.695 28.971,25.357 23.273,43.914 -5.692,18.552 -25.351,28.971 -43.908,23.271 z"
   id="path298" />

						
							<path
   style="fill:none;stroke:#ded6ca;stroke-width:4.8711;stroke-linecap:round;stroke-linejoin:round;stroke-miterlimit:10;stroke-opacity:1"
   d="m 938.021,428.606 c -5.693,18.552 -25.352,28.971 -43.909,23.271 -18.557,-5.692 -28.976,-25.358 -23.279,-43.906 5.698,-18.552 25.357,-28.984 43.914,-23.279 18.557,5.695 28.972,25.357 23.274,43.914 z"
   id="path299" />

					</g>

					<g
   id="g306"
   style="fill:none;stroke:#ded6ca;stroke-opacity:1">
						<g
   id="g302"
   style="fill:none;stroke:#ded6ca;stroke-opacity:1">
							<g
   id="g301"
   style="fill:none;stroke:#ded6ca;stroke-opacity:1">
								
									<path
   style="fill:none;stroke:#ded6ca;stroke-width:4.8711;stroke-linecap:round;stroke-linejoin:round;stroke-miterlimit:10;stroke-opacity:1"
   d="m 829.502,534.729 27.655,8.495 c 2.343,44.506 -31.97,60.625 -31.97,60.625 -23.894,-36.655 4.315,-69.12 4.315,-69.12 z"
   id="path300" />

								
									<path
   style="fill:none;stroke:#ded6ca;stroke-width:4.8711;stroke-linecap:round;stroke-linejoin:round;stroke-miterlimit:10;stroke-opacity:1"
   d="m 852.801,541.885 -18.969,-5.828 c -4.905,11.098 -10.846,30.531 -3.807,49.503 0,0 17.469,-13.555 22.776,-43.675 z"
   id="path301" />

							</g>

							
								<polygon
   style="fill:none;stroke:#ded6ca;stroke-width:4.8711;stroke-linecap:round;stroke-linejoin:round;stroke-miterlimit:10;stroke-opacity:1"
   points="825.751,533.578 828.886,526.541 861.441,536.538 860.084,544.119 "
   id="polygon301" />

							
								<path
   style="fill:none;stroke:#ded6ca;stroke-width:4.8711;stroke-linecap:round;stroke-linejoin:round;stroke-miterlimit:10;stroke-opacity:1"
   d="m 863.326,537.123 3.411,-11.085 c 0.473,-1.55 -0.391,-3.194 -1.947,-3.669 l -30.73,-9.433 c -1.55,-0.478 -3.187,0.396 -3.67,1.947 l -3.395,11.08 z"
   id="path302" />

						</g>

						<g
   id="g305"
   style="fill:none;stroke:#ded6ca;stroke-opacity:1">
							<g
   id="g304"
   style="fill:none;stroke:#ded6ca;stroke-opacity:1">
								
									<path
   style="fill:none;stroke:#ded6ca;stroke-width:4.8711;stroke-linecap:round;stroke-linejoin:round;stroke-miterlimit:10;stroke-opacity:1"
   d="m 873.817,548.34 27.649,8.49 c 2.354,44.511 -31.969,60.629 -31.969,60.629 -23.884,-36.656 4.32,-69.119 4.32,-69.119 z"
   id="path303" />

								
									<path
   style="fill:none;stroke:#ded6ca;stroke-width:4.8711;stroke-linecap:round;stroke-linejoin:round;stroke-miterlimit:10;stroke-opacity:1"
   d="m 897.121,555.497 -18.974,-5.827 c -4.905,11.098 -10.846,30.531 -3.807,49.502 0,0 17.47,-13.558 22.781,-43.675 z"
   id="path304" />

							</g>

							
								<polygon
   style="fill:none;stroke:#ded6ca;stroke-width:4.8711;stroke-linecap:round;stroke-linejoin:round;stroke-miterlimit:10;stroke-opacity:1"
   points="870.066,547.189 873.202,540.154 905.757,550.15 904.399,557.733 "
   id="polygon304" />

							
								<path
   style="fill:none;stroke:#ded6ca;stroke-width:4.8711;stroke-linecap:round;stroke-linejoin:round;stroke-miterlimit:10;stroke-opacity:1"
   d="m 907.647,550.732 3.405,-11.083 c 0.473,-1.55 -0.391,-3.192 -1.947,-3.672 l -30.724,-9.436 c -1.545,-0.478 -3.192,0.397 -3.67,1.949 l -3.405,11.08 z"
   id="path305" />

						</g>

					</g>

				</g>

				<g
   id="g324"
   style="fill:none;stroke:#ded6ca;stroke-opacity:1">
					<g
   id="g309"
   style="fill:none;stroke:#ded6ca;stroke-opacity:1">
						<g
   id="g308"
   style="fill:none;stroke:#ded6ca;stroke-opacity:1">
							<path
   style="fill:none;stroke:#ded6ca;stroke-opacity:1"
   d="m 940.724,298.142 c -0.066,5.41 1.87,11.17 3.324,16.349 1.566,5.579 3.406,11.066 5.181,16.579 1.778,5.52 3.438,11.071 5.025,16.648 1.172,4.119 1.485,10.291 5.425,12.701 0.715,0.437 1.513,0.099 1.968,-0.516 2.759,-3.725 0.223,-9.934 -0.846,-13.99 -1.477,-5.605 -3.432,-11.092 -5.348,-16.559 -1.92,-5.477 -3.893,-10.933 -5.866,-16.39 -1.856,-5.133 -3.197,-10.848 -5.735,-15.669 -0.797,-1.511 -3.108,-0.761 -3.128,0.847 z"
   id="path307" />

						</g>

					</g>

					<g
   id="g311"
   style="fill:none;stroke:#ded6ca;stroke-opacity:1">
						<g
   id="g310"
   style="fill:none;stroke:#ded6ca;stroke-opacity:1">
							<path
   style="fill:none;stroke:#ded6ca;stroke-opacity:1"
   d="m 918.03,364.817 c 3.736,4.536 10.282,6.028 15.699,7.578 5.307,1.519 10.691,2.926 15.949,4.606 6.741,2.153 12.058,6.147 10.871,13.896 -1.081,7.053 -2.991,14.192 -4.566,21.155 -3.44,15.21 -8.164,30.06 -13.393,44.741 -2.616,7.345 -5.352,14.647 -8.119,21.937 -1.328,3.5 -2.667,6.99 -3.886,10.53 -0.605,1.759 -1.29,3.515 -1.815,5.3 -0.582,1.977 -0.608,4.285 -1.397,6.173 -0.526,1.257 1.238,1.89 2.061,1.2 5.402,-4.534 7.537,-13.479 10.012,-19.898 3.143,-8.151 6.257,-16.315 9.215,-24.535 6.008,-16.696 11.457,-33.68 15.234,-51.033 2.639,-12.124 7.485,-25.846 -6.106,-33.145 -5.245,-2.817 -11.508,-4.104 -17.247,-5.522 -7.078,-1.749 -13.983,-3.599 -20.979,-5.616 -1.625,-0.468 -2.476,1.489 -1.533,2.633 z"
   id="path309" />

						</g>

					</g>

					<g
   id="g313"
   style="fill:none;stroke:#ded6ca;stroke-opacity:1">
						<g
   id="g312"
   style="fill:none;stroke:#ded6ca;stroke-opacity:1">
							<path
   style="fill:none;stroke:#ded6ca;stroke-opacity:1"
   d="m 841.226,411.295 c -5.083,4.497 -11.698,7.96 -17.449,11.537 -7.531,4.684 -15.156,9.263 -22.182,14.695 -5.774,4.465 -11.78,9.715 -14.917,16.459 -2.481,5.332 -3.787,14.248 1.576,18.295 1.587,1.197 3.818,-0.437 3.814,-2.189 -0.008,-3.098 -1.883,-5.785 -1.795,-8.979 0.086,-3.159 1.39,-6.048 3.066,-8.674 4.149,-6.501 10.699,-11.392 16.912,-15.773 6.488,-4.576 13.305,-8.646 19.903,-13.055 4.789,-3.2 9.261,-6.394 12.364,-11.321 0.516,-0.82 -0.618,-1.592 -1.292,-0.995 z"
   id="path311" />

						</g>

					</g>

					<g
   id="g315"
   style="fill:none;stroke:#ded6ca;stroke-opacity:1">
						<g
   id="g314"
   style="fill:none;stroke:#ded6ca;stroke-opacity:1">
							<path
   style="fill:none;stroke:#ded6ca;stroke-opacity:1"
   d="m 952.263,465.846 c -2.719,3.955 -3.287,9.809 -4.857,14.349 -1.764,5.1 -3.664,10.152 -5.56,15.204 -1.908,5.082 -3.795,10.185 -5.254,15.418 -0.966,3.467 -3.834,10.693 -2.034,14.13 1.504,2.872 6.338,5.391 9.121,6.735 3.858,1.864 8.083,2.93 12.299,3.602 7.494,1.196 17.889,2.655 24.206,-2.474 1.328,-1.078 0.431,-3.09 -0.937,-3.549 -6.628,-2.227 -14.354,-0.209 -21.279,-1.193 -3.712,-0.527 -7.345,-1.489 -10.841,-2.836 -1.564,-0.602 -3.871,-1.25 -5.106,-2.449 -1.766,-1.714 -0.848,-3.645 -0.309,-6.146 1.927,-8.938 5.323,-17.46 8.362,-26.056 2.338,-6.612 7.027,-17.468 4.319,-24.457 -0.37,-0.952 -1.536,-1.142 -2.13,-0.278 z"
   id="path313" />

						</g>

					</g>

					<g
   id="g317"
   style="fill:none;stroke:#ded6ca;stroke-opacity:1">
						<g
   id="g316"
   style="fill:none;stroke:#ded6ca;stroke-opacity:1">
							<path
   style="fill:none;stroke:#ded6ca;stroke-opacity:1"
   d="m 878.346,407.098 c 5.852,0.675 11.985,-3.698 16.809,-6.473 5.784,-3.327 12.508,-6.292 17.389,-10.892 0.764,-0.72 -0.063,-1.737 -0.933,-1.603 -6.464,0.994 -12.159,5.421 -17.666,8.694 -5.053,3.002 -11.819,5.385 -15.793,9.806 -0.17,0.19 -0.04,0.441 0.194,0.468 z"
   id="path315" />

						</g>

					</g>

					<g
   id="g319"
   style="fill:none;stroke:#ded6ca;stroke-opacity:1">
						<g
   id="g318"
   style="fill:none;stroke:#ded6ca;stroke-opacity:1">
							<path
   style="fill:none;stroke:#ded6ca;stroke-opacity:1"
   d="m 875.927,415.584 c 8.686,-2.035 16.287,-8.462 23.751,-13.05 4.142,-2.546 8.396,-4.92 12.908,-6.749 2.881,-1.168 7.652,-1.369 9.295,-4.272 0.184,-0.326 0.142,-0.773 -0.134,-1.038 -2.583,-2.482 -6.781,-0.522 -9.687,0.553 -4.398,1.626 -8.539,3.924 -12.528,6.366 -8.242,5.045 -17.084,10.663 -24.071,17.388 -0.358,0.344 0.014,0.908 0.466,0.802 z"
   id="path317" />

						</g>

					</g>

					<g
   id="g321"
   style="fill:none;stroke:#ded6ca;stroke-opacity:1">
						<g
   id="g320"
   style="fill:none;stroke:#ded6ca;stroke-opacity:1">
							<path
   style="fill:none;stroke:#ded6ca;stroke-opacity:1"
   d="m 875.146,423.683 c 9.58,-1.652 17.648,-6.452 25.931,-11.346 4.286,-2.533 8.525,-5.144 12.785,-7.72 3.427,-2.072 7.737,-3.982 9.798,-7.561 0.389,-0.676 -0.105,-1.544 -0.887,-1.546 -3.915,-0.008 -7.348,2.572 -10.56,4.577 -4.219,2.633 -8.412,5.307 -12.65,7.908 -8.207,5.038 -16.708,9.518 -24.866,14.624 -0.583,0.365 -0.187,1.174 0.449,1.064 z"
   id="path319" />

						</g>

					</g>

					<g
   id="g323"
   style="fill:none;stroke:#ded6ca;stroke-opacity:1">
						<g
   id="g322"
   style="fill:none;stroke:#ded6ca;stroke-opacity:1">
							<path
   style="fill:none;stroke:#ded6ca;stroke-opacity:1"
   d="m 874.935,432.251 c 9.838,-0.063 19.755,-7.666 27.712,-12.704 4.683,-2.965 9.303,-6.038 14.068,-8.871 3.66,-2.176 10.07,-3.91 11.99,-7.895 0.35,-0.727 0.069,-1.563 -0.737,-1.811 -3.989,-1.229 -8.365,2.186 -11.686,4.084 -4.803,2.746 -9.445,5.767 -14.048,8.832 -4.369,2.909 -8.738,5.824 -13.269,8.477 -4.752,2.782 -10.072,4.919 -14.481,8.228 -0.66,0.497 -0.509,1.666 0.451,1.66 z"
   id="path321" />

						</g>

					</g>

				</g>

			</g>

		</g>

	</g>
  </g>
</svg>
